<svg id="Layer_1" data-name="Layer 1" xmlns="http://www.w3.org/2000/svg" viewBox="0 0 187.84 56.31"><defs><style>.cls-1{fill:#fff;}</style></defs><title>universidaddelosandes</title><path class="cls-1" d="M457,395.74a37.81,37.81,0,0,1-19.84,6,14.83,14.83,0,0,1-.17-3.51c0.11-2.22,1.32-1.6,2.2-3.35a14.62,14.62,0,0,0,1.09-2.57c0-.06-0.58-10.71-0.74-15.23-0.08-2.43-.54-6.5-1.08-10.45-0.32-2.34-1-4.2-1.36-6.42-0.48-3.21-1-6.83-1-6.83a72.06,72.06,0,0,0-1.53,9.16c-0.27,2.07-.55,4.26-0.8,6.3-0.54,4.33-1.89,15.9-2.1,16.53-0.31,1-.34-0.25-0.34-0.25s0.8-12.15,1-17.47c0.12-2.6.31-5.47,0.64-8.21a55.7,55.7,0,0,1,1-5.83s1.39-4.2,1.83-4.28,2,2.65,2.59,5.08c1.23,5.49,2,6.19,2.89,12,0.89,5.48,1.7,10.06,1.81,10.81a66.9,66.9,0,0,1-.48,14.58,2.72,2.72,0,0,1-.81,1.87c-1.41,1.43-2.41,3.13-2.41,4.24s-0.19,1.09.08,1.74c0,0,1.86,2.78,12.55-3.59a6.64,6.64,0,0,0,3.34-5.61V351.27s-10.6-3.58-18.76-3.58-18.39,3.58-18.39,3.58v38.9c0,2.39.35,6.88,3.77,8.42,0,0-9.11-3.12-9.11-8.46V348s13.9-2.56,23.73-2.56,24,2.56,24,2.56v42.21C460.52,393.81,457,395.74,457,395.74Z" transform="translate(-412.81 -345.4)"/><path class="cls-1" d="M589,363.09a8,8,0,0,1-3.92.81,5,5,0,0,1-3.86-1.5,6,6,0,0,1-1.37-4.19,6.41,6.41,0,0,1,1.37-4.32,4.46,4.46,0,0,1,3.55-1.54,5.86,5.86,0,0,1,1.69.21V348H589v15.06ZM586.51,362v-8.09a4,4,0,0,0-1.13-.15q-3,0-3,4.27t2.77,4.21A2.57,2.57,0,0,0,586.51,362Z" transform="translate(-412.81 -345.4)"/><path class="cls-1" d="M600.64,358l-6.88,1q0.31,3.12,3.07,3.12a6.19,6.19,0,0,0,2.84-.61l0.6,1.6a7.66,7.66,0,0,1-3.71.79,4.93,4.93,0,0,1-3.82-1.52,6.19,6.19,0,0,1-1.4-4.33,6.45,6.45,0,0,1,1.28-4.26,4.34,4.34,0,0,1,3.51-1.53,4.11,4.11,0,0,1,3.42,1.47A6.42,6.42,0,0,1,600.64,358Zm-2.37-1q0-3.19-2.21-3.19a2,2,0,0,0-1.79.94,5.08,5.08,0,0,0-.65,3Z" transform="translate(-412.81 -345.4)"/><path class="cls-1" d="M472.77,393.67h-4V369h4v24.66Z" transform="translate(-412.81 -345.4)"/><path class="cls-1" d="M491.16,384.88a10.65,10.65,0,0,1-1.8,6.5,7.14,7.14,0,0,1-11,0,12.71,12.71,0,0,1,0-13,7.14,7.14,0,0,1,11,0A10.71,10.71,0,0,1,491.16,384.88Zm-4,0q0-6.6-3.36-6.6t-3.36,6.6q0,6.44,3.36,6.44T487.21,384.85Z" transform="translate(-412.81 -345.4)"/><path class="cls-1" d="M504.83,388.6a4.93,4.93,0,0,1-1.73,3.79,6.51,6.51,0,0,1-4.54,1.57,8.47,8.47,0,0,1-4.87-1.27l1-2.54a5.14,5.14,0,0,0,3.3,1,2.76,2.76,0,0,0,2-.7,2.33,2.33,0,0,0,.75-1.78,2.48,2.48,0,0,0-.59-1.75,5.16,5.16,0,0,0-2-1.16q-4-1.54-4-4.93a4.8,4.8,0,0,1,1.55-3.63,5.62,5.62,0,0,1,4-1.47,8.15,8.15,0,0,1,4.57,1.24l-1,2.32a4.31,4.31,0,0,0-2.81-1,2.48,2.48,0,0,0-1.84.67,2.24,2.24,0,0,0-.67,1.65q0,1.73,2.61,2.78Q504.83,385.11,504.83,388.6Z" transform="translate(-412.81 -345.4)"/><path class="cls-1" d="M534.25,393.67H529.6l-1.88-6.28h-7.88l-2,6.28h-4.05l8.1-24.44h4.26Zm-7.17-8.91-2.52-8.61a16.54,16.54,0,0,1-.64-3h-0.07q-0.18,1-.67,3l-2.63,8.61h6.54Z" transform="translate(-412.81 -345.4)"/><path class="cls-1" d="M550.65,393.67h-4V381.19q0-2.94-3.17-2.94a7.4,7.4,0,0,0-2.74.49v14.93h-4V377a16.25,16.25,0,0,1,6.89-1.27q3.69,0,5.46,1.63a4.79,4.79,0,0,1,1.54,3.76v12.55Z" transform="translate(-412.81 -345.4)"/><path class="cls-1" d="M568.63,392.72a12.66,12.66,0,0,1-6.15,1.27,7.8,7.8,0,0,1-6-2.35,9.36,9.36,0,0,1-2.16-6.57,10,10,0,0,1,2.16-6.76,7,7,0,0,1,5.56-2.42,9.32,9.32,0,0,1,2.65.33v-7.13h4v23.62Zm-4-1.67V378.38a6.32,6.32,0,0,0-1.77-.23q-4.64,0-4.64,6.7t4.35,6.6A4,4,0,0,0,564.64,391.05Z" transform="translate(-412.81 -345.4)"/><path class="cls-1" d="M586.77,384.75L576,386.32q0.49,4.9,4.8,4.9a9.55,9.55,0,0,0,4.45-1l0.95,2.51a12,12,0,0,1-5.82,1.24,7.72,7.72,0,0,1-6-2.38q-2.19-2.38-2.19-6.79a10.1,10.1,0,0,1,2-6.68,6.8,6.8,0,0,1,5.51-2.4,6.44,6.44,0,0,1,5.36,2.3Q586.91,380.34,586.77,384.75ZM583,383.18q0-5-3.46-5a3.18,3.18,0,0,0-2.81,1.47,8,8,0,0,0-1,4.64Z" transform="translate(-412.81 -345.4)"/><path class="cls-1" d="M600.48,388.6a4.93,4.93,0,0,1-1.73,3.79A6.52,6.52,0,0,1,594.2,394a8.48,8.48,0,0,1-4.87-1.27l1-2.54a5.15,5.15,0,0,0,3.3,1,2.75,2.75,0,0,0,2-.7,2.33,2.33,0,0,0,.75-1.78,2.48,2.48,0,0,0-.59-1.75,5.17,5.17,0,0,0-2-1.16q-4-1.54-4-4.93a4.8,4.8,0,0,1,1.55-3.63,5.62,5.62,0,0,1,4-1.47,8.14,8.14,0,0,1,4.57,1.24l-1,2.32a4.31,4.31,0,0,0-2.8-1,2.49,2.49,0,0,0-1.84.67,2.25,2.25,0,0,0-.67,1.65q0,1.73,2.61,2.78Q600.48,385.11,600.48,388.6Z" transform="translate(-412.81 -345.4)"/><path class="cls-1" d="M489.82,363.73h-2.54v-8a1.73,1.73,0,0,0-2-1.88,4.72,4.72,0,0,0-1.75.31v9.53H481V353.1a10.36,10.36,0,0,1,4.39-.81,5,5,0,0,1,3.48,1,3,3,0,0,1,1,2.4v8Z" transform="translate(-412.81 -345.4)"/><path class="cls-1" d="M495.29,349.3a1.15,1.15,0,0,1-.41.89,1.53,1.53,0,0,1-2,0,1.15,1.15,0,0,1-.41-0.89,1.18,1.18,0,0,1,.41-0.9,1.41,1.41,0,0,1,1-.38,1.43,1.43,0,0,1,1,.37A1.17,1.17,0,0,1,495.29,349.3Zm-0.13,14.43h-2.54V352.49h2.54v11.24Z" transform="translate(-412.81 -345.4)"/><path class="cls-1" d="M506.73,352.49l-3.61,11.24h-2.42L497,352.49h2.71l2,7.25a7.22,7.22,0,0,1,.27,1.54h0q0.1-.6.29-1.54l2-7.25h2.38Z" transform="translate(-412.81 -345.4)"/><path class="cls-1" d="M517.38,358l-6.88,1q0.31,3.12,3.06,3.12a6.19,6.19,0,0,0,2.84-.61l0.61,1.6a7.65,7.65,0,0,1-3.71.79,4.93,4.93,0,0,1-3.82-1.52,6.18,6.18,0,0,1-1.4-4.33,6.44,6.44,0,0,1,1.28-4.26,4.34,4.34,0,0,1,3.51-1.53,4.1,4.1,0,0,1,3.42,1.47A6.43,6.43,0,0,1,517.38,358ZM515,357q0-3.19-2.21-3.19a2,2,0,0,0-1.8.94,5.09,5.09,0,0,0-.65,3Z" transform="translate(-412.81 -345.4)"/><path class="cls-1" d="M525.11,352.3l-0.5,1.86a3.68,3.68,0,0,0-1.17-.19,2.44,2.44,0,0,0-1.21.27v9.49h-2.54V353.09A12.05,12.05,0,0,1,525.11,352.3Z" transform="translate(-412.81 -345.4)"/><path class="cls-1" d="M533.21,360.5a3.15,3.15,0,0,1-1.11,2.42,4.15,4.15,0,0,1-2.9,1,5.4,5.4,0,0,1-3.11-.81l0.67-1.63a3.27,3.27,0,0,0,2.11.65,1.76,1.76,0,0,0,1.25-.45,1.49,1.49,0,0,0,.48-1.14,1.59,1.59,0,0,0-.37-1.12,3.34,3.34,0,0,0-1.27-.74q-2.56-1-2.56-3.15a3.06,3.06,0,0,1,1-2.31,3.58,3.58,0,0,1,2.57-.94,5.21,5.21,0,0,1,2.92.79l-0.62,1.48a2.75,2.75,0,0,0-1.79-.63,1.59,1.59,0,0,0-1.18.43,1.44,1.44,0,0,0-.43,1.05q0,1.11,1.67,1.77Q533.21,358.27,533.21,360.5Z" transform="translate(-412.81 -345.4)"/><path class="cls-1" d="M538.19,349.3a1.16,1.16,0,0,1-.41.89,1.53,1.53,0,0,1-2,0,1.16,1.16,0,0,1-.41-0.89,1.18,1.18,0,0,1,.41-0.9,1.41,1.41,0,0,1,1-.38,1.43,1.43,0,0,1,1,.37A1.18,1.18,0,0,1,538.19,349.3Zm-0.13,14.43h-2.54V352.49h2.54v11.24Z" transform="translate(-412.81 -345.4)"/><path class="cls-1" d="M549.6,363.12a8.05,8.05,0,0,1-3.92.81,5,5,0,0,1-3.86-1.5,6,6,0,0,1-1.37-4.19,6.4,6.4,0,0,1,1.37-4.32,4.46,4.46,0,0,1,3.55-1.54,5.89,5.89,0,0,1,1.69.21v-4.54h2.54v15.06Zm-2.54-1.07V354a4,4,0,0,0-1.13-.15q-3,0-3,4.27t2.77,4.21A2.57,2.57,0,0,0,547.06,362.06Z" transform="translate(-412.81 -345.4)"/><path class="cls-1" d="M560.42,363.12a8.64,8.64,0,0,1-4.06.81q-4.58,0-4.58-3.42a3.3,3.3,0,0,1,1.86-3.06,12.12,12.12,0,0,1,4.42-1.08v-0.6q0-1.85-2.23-1.85a6.45,6.45,0,0,0-2.81.68l-0.58-1.46a8.69,8.69,0,0,1,3.86-.85q4.15,0,4.15,3.88v7Zm-2.37-.91v-4.63a7.38,7.38,0,0,0-2.83.77,2.27,2.27,0,0,0-1,2.09q0,2.08,2.35,2.09A3.37,3.37,0,0,0,558,362.21Z" transform="translate(-412.81 -345.4)"/><path class="cls-1" d="M571.87,363.12a8.06,8.06,0,0,1-3.92.81,5,5,0,0,1-3.86-1.5,6,6,0,0,1-1.37-4.19,6.4,6.4,0,0,1,1.38-4.32,4.45,4.45,0,0,1,3.54-1.54,5.89,5.89,0,0,1,1.69.21v-4.54h2.54v15.06Zm-2.54-1.07V354a4,4,0,0,0-1.12-.15q-3,0-3,4.27t2.77,4.21A2.56,2.56,0,0,0,569.33,362.06Z" transform="translate(-412.81 -345.4)"/><path class="cls-1" d="M468.75,348.08h2.7v12.08q0,2,2.15,2a5,5,0,0,0,1.86-.33V348.08h2.7V363a11,11,0,0,1-4.67.86,5.3,5.3,0,0,1-3.7-1.11,3.24,3.24,0,0,1-1-2.55V348.08Z" transform="translate(-412.81 -345.4)"/></svg>